<svg xmlns="http://www.w3.org/2000/svg" width="60.83" height="58.01" viewBox="0 0 60.83 58.01">
  <g id="Group_3" data-name="Group 3" transform="translate(-7 -19.19)">
    <path id="Path_7" data-name="Path 7" d="M7,21.347a3.018,3.018,0,0,1,2.1-2.053,1.63,1.63,0,0,1,.348-.066c2.118,0,4.246-.114,6.353.049a5.984,5.984,0,0,1,5.57,5.34c.2,1.31.416,2.619.578,3.934.052.419.211.512.6.509,1.842-.017,3.683-.007,5.525-.007q18.21,0,36.419,0a5.391,5.391,0,0,1,1.236.1,2.637,2.637,0,0,1,2.043,3.186q-1.467,7.42-2.958,14.836c-.453,2.269-.923,4.535-1.358,6.807a7.63,7.63,0,0,1-7.769,6.467c-9.209.008-18.418-.064-27.626.034a7.894,7.894,0,0,1-8.006-7.032c-.752-5.886-1.7-11.747-2.56-17.619q-.74-5.05-1.47-10.1c-.13-.9-.3-1.063-1.223-1.064-1.406,0-2.815-.062-4.217.016A3.193,3.193,0,0,1,7,22.535Z" fill="#303138"/>
    <path id="Path_8" data-name="Path 8" d="M248.03,296.166a7.1,7.1,0,1,1,.036-14.206,7.222,7.222,0,0,1,7.1,7.14A7.127,7.127,0,0,1,248.03,296.166Z" transform="translate(-194.945 -218.965)" fill="#303138"/>
    <path id="Path_9" data-name="Path 9" d="M109.855,289.051a7.07,7.07,0,0,1-6.88,7.05,6.967,6.967,0,0,1-6.968-6.926,7.132,7.132,0,0,1,6.876-7.2A7.051,7.051,0,0,1,109.855,289.051Z" transform="translate(-74.169 -218.976)" fill="#303138"/>
  </g>
</svg>
