<svg xmlns="http://www.w3.org/2000/svg" xmlns:xlink="http://www.w3.org/1999/xlink" width="517.941" height="518.009" viewBox="0 0 517.941 518.009">
  <defs>
    <filter id="Path_52" x="14" y="14" width="503.941" height="504.009" filterUnits="userSpaceOnUse">
      <feOffset dx="7" dy="7" input="SourceAlpha"/>
      <feGaussianBlur stdDeviation="20" result="blur"/>
      <feFlood flood-color="#d300ff"/>
      <feComposite operator="in" in2="blur"/>
      <feComposite in="SourceGraphic"/>
    </filter>
    <filter id="Path_51" x="82.195" y="82.253" width="367.493" height="367.494" filterUnits="userSpaceOnUse">
      <feOffset dx="7" dy="7" input="SourceAlpha"/>
      <feGaussianBlur stdDeviation="20" result="blur-2"/>
      <feFlood flood-color="#d300ff"/>
      <feComposite operator="in" in2="blur-2"/>
      <feComposite in="SourceGraphic"/>
    </filter>
    <filter id="Path_54" x="172.158" y="151.159" width="142.324" height="161.934" filterUnits="userSpaceOnUse">
      <feOffset dx="7" dy="7" input="SourceAlpha"/>
      <feGaussianBlur stdDeviation="20" result="blur-3"/>
      <feFlood flood-color="#d300ff"/>
      <feComposite operator="in" in2="blur-3"/>
      <feComposite in="SourceGraphic"/>
    </filter>
    <filter id="Path_53" x="217.426" y="218.692" width="142.263" height="161.883" filterUnits="userSpaceOnUse">
      <feOffset dx="7" dy="7" input="SourceAlpha"/>
      <feGaussianBlur stdDeviation="20" result="blur-4"/>
      <feFlood flood-color="#d300ff"/>
      <feComposite operator="in" in2="blur-4"/>
      <feComposite in="SourceGraphic"/>
    </filter>
    <filter id="Path_55" x="0" y="0" width="503.941" height="504.009" filterUnits="userSpaceOnUse">
      <feOffset dx="-7" dy="-7" input="SourceAlpha"/>
      <feGaussianBlur stdDeviation="20" result="blur-5"/>
      <feFlood flood-color="aqua"/>
      <feComposite operator="in" in2="blur-5"/>
      <feComposite in="SourceGraphic"/>
    </filter>
    <filter id="Path_56" x="68.195" y="68.253" width="367.493" height="367.494" filterUnits="userSpaceOnUse">
      <feOffset dx="-7" dy="-7" input="SourceAlpha"/>
      <feGaussianBlur stdDeviation="20" result="blur-6"/>
      <feFlood flood-color="aqua"/>
      <feComposite operator="in" in2="blur-6"/>
      <feComposite in="SourceGraphic"/>
    </filter>
    <filter id="Path_57" x="158.158" y="137.159" width="142.324" height="161.934" filterUnits="userSpaceOnUse">
      <feOffset dx="-7" dy="-7" input="SourceAlpha"/>
      <feGaussianBlur stdDeviation="20" result="blur-7"/>
      <feFlood flood-color="aqua"/>
      <feComposite operator="in" in2="blur-7"/>
      <feComposite in="SourceGraphic"/>
    </filter>
    <filter id="Path_58" x="203.426" y="204.692" width="142.263" height="161.883" filterUnits="userSpaceOnUse">
      <feOffset dx="-7" dy="-7" input="SourceAlpha"/>
      <feGaussianBlur stdDeviation="20" result="blur-8"/>
      <feFlood flood-color="aqua"/>
      <feComposite operator="in" in2="blur-8"/>
      <feComposite in="SourceGraphic"/>
    </filter>
  </defs>
  <g id="Group_80" data-name="Group 80" transform="translate(-303.309 -1218.5)">
    <g transform="matrix(1, 0, 0, 1, 303.31, 1218.5)" filter="url(#Path_52)">
      <path id="Path_52-2" data-name="Path 52" d="M-395.75,593.5h24a26.767,26.767,0,0,0,3.256.644c20.6,1.542,40.557,6.11,59.333,14.65,62.739,28.537,101.283,76.5,114.539,144.37,1.311,6.71,1.931,13.554,2.872,20.336v24c-.808,6.168-1.4,12.372-2.457,18.5-7.987,46.495-29.715,85.452-65.834,115.7-46.516,38.96-100.147,53.263-159.9,42.158-44.218-8.219-80.943-30.23-109.924-64.487-34.866-41.213-49.869-89.1-44.9-142.87a182.98,182.98,0,0,1,36.6-94.5c30.725-40.9,71.213-66.408,121.712-75.579C-409.6,595.18-402.654,594.462-395.75,593.5Zm11.98,338.246c80.532.016,146.177-65.572,146.266-146.138.089-80.522-65.443-146.195-146.04-146.355C-464.18,639.094-530.05,704.9-530,785.571-529.943,866.107-464.3,931.731-383.77,931.746Z" transform="translate(642.69 -526.5)" fill="#fff"/>
    </g>
    <g transform="matrix(1, 0, 0, 1, 303.31, 1218.5)" filter="url(#Path_51)">
      <path id="Path_51-2" data-name="Path 51" d="M-383.631,661.753c68.24.079,123.758,55.743,123.627,123.953-.13,68.23-55.872,123.743-124.05,123.54-68.243-.2-123.691-55.97-123.442-124.151C-507.248,716.994-451.694,661.675-383.631,661.753Zm11.129,44.364c0-2.737.051-6.479-.011-10.218-.111-6.774-4.741-11.625-11.087-11.7-6.5-.074-11.291,4.846-11.389,11.776-.053,3.739-.01,7.48-.01,11.379-1.227.319-2.283.629-3.356.866A61.514,61.514,0,0,0-422.7,719.249c-21.225,16.15-23.128,42.978-4.289,61.072,8.158,7.835,18.036,12.337,28.937,14.907,1.134.268,2.911,1.5,2.921,2.3.18,14.1.13,28.2.13,42.344-12.824-2.077-20.834-9.994-22.567-22.074a11.269,11.269,0,0,0-11.758-9.833,11.014,11.014,0,0,0-10.588,10.995,35.2,35.2,0,0,0,1.192,9.236c4.527,16.187,16.044,25.674,31.06,31.547,4.028,1.575,8.289,2.556,12.672,3.879,0,3.964-.1,7.952.022,11.934a11.252,11.252,0,0,0,11.262,11.183,11.288,11.288,0,0,0,11.186-11.267c.1-3,.157-6.006-.019-8.994-.141-2.4.536-3.414,3.117-3.911a58.59,58.59,0,0,0,25.015-11.314c19.725-15.249,22.491-40.2,6.439-58.173a53.891,53.891,0,0,0-22.953-15c-3.734-1.3-7.6-2.216-11.377-3.3V730.723a33.247,33.247,0,0,1,3.442.918c10.148,3.941,18.463,9.289,19.115,21.814.282,5.4,5.611,9.421,10.93,9.458a11.29,11.29,0,0,0,11.085-9.34,22.6,22.6,0,0,0-.153-6.7c-1.974-13.411-9.4-23.423-20.74-30.109C-355.826,712.514-363.964,709.85-372.5,706.117Z" transform="translate(642.69 -526.5)" fill="#fff"/>
    </g>
    <g transform="matrix(1, 0, 0, 1, 303.31, 1218.5)" filter="url(#Path_54)">
      <path id="Path_54-2" data-name="Path 54" d="M-395.209,772.593c-7.522-1.921-14.125-5.129-18.852-11.361-4.762-6.277-4.6-13.481.329-19.635,4.717-5.888,11.118-8.971,18.523-10.938Z" transform="translate(642.69 -526.5)" fill="#fff"/>
    </g>
    <g transform="matrix(1, 0, 0, 1, 303.31, 1218.5)" filter="url(#Path_53)">
      <path id="Path_53-2" data-name="Path 53" d="M-372.265,798.192c6.481,1.645,12.04,4.258,16.588,8.764,7.575,7.505,7.571,16.9-.042,24.413-4.551,4.495-10.118,7.11-16.546,8.706Z" transform="translate(642.69 -526.5)" fill="#fff"/>
    </g>
    <g transform="matrix(1, 0, 0, 1, 303.31, 1218.5)" filter="url(#Path_55)">
      <path id="Path_55-2" data-name="Path 55" d="M-395.75,593.5h24a26.767,26.767,0,0,0,3.256.644c20.6,1.542,40.557,6.11,59.333,14.65,62.739,28.537,101.283,76.5,114.539,144.37,1.311,6.71,1.931,13.554,2.872,20.336v24c-.808,6.168-1.4,12.372-2.457,18.5-7.987,46.495-29.715,85.452-65.834,115.7-46.516,38.96-100.147,53.263-159.9,42.158-44.218-8.219-80.943-30.23-109.924-64.487-34.866-41.213-49.869-89.1-44.9-142.87a182.98,182.98,0,0,1,36.6-94.5c30.725-40.9,71.213-66.408,121.712-75.579C-409.6,595.18-402.654,594.462-395.75,593.5Zm11.98,338.246c80.532.016,146.177-65.572,146.266-146.138.089-80.522-65.443-146.195-146.04-146.355C-464.18,639.094-530.05,704.9-530,785.571-529.943,866.107-464.3,931.731-383.77,931.746Z" transform="translate(642.69 -526.5)" fill="#fff"/>
    </g>
    <g transform="matrix(1, 0, 0, 1, 303.31, 1218.5)" filter="url(#Path_56)">
      <path id="Path_56-2" data-name="Path 56" d="M-383.631,661.753c68.24.079,123.758,55.743,123.627,123.953-.13,68.23-55.872,123.743-124.05,123.54-68.243-.2-123.691-55.97-123.442-124.151C-507.248,716.994-451.694,661.675-383.631,661.753Zm11.129,44.364c0-2.737.051-6.479-.011-10.218-.111-6.774-4.741-11.625-11.087-11.7-6.5-.074-11.291,4.846-11.389,11.776-.053,3.739-.01,7.48-.01,11.379-1.227.319-2.283.629-3.356.866A61.514,61.514,0,0,0-422.7,719.249c-21.225,16.15-23.128,42.978-4.289,61.072,8.158,7.835,18.036,12.337,28.937,14.907,1.134.268,2.911,1.5,2.921,2.3.18,14.1.13,28.2.13,42.344-12.824-2.077-20.834-9.994-22.567-22.074a11.269,11.269,0,0,0-11.758-9.833,11.014,11.014,0,0,0-10.588,10.995,35.2,35.2,0,0,0,1.192,9.236c4.527,16.187,16.044,25.674,31.06,31.547,4.028,1.575,8.289,2.556,12.672,3.879,0,3.964-.1,7.952.022,11.934a11.252,11.252,0,0,0,11.262,11.183,11.288,11.288,0,0,0,11.186-11.267c.1-3,.157-6.006-.019-8.994-.141-2.4.536-3.414,3.117-3.911a58.59,58.59,0,0,0,25.015-11.314c19.725-15.249,22.491-40.2,6.439-58.173a53.891,53.891,0,0,0-22.953-15c-3.734-1.3-7.6-2.216-11.377-3.3V730.723a33.247,33.247,0,0,1,3.442.918c10.148,3.941,18.463,9.289,19.115,21.814.282,5.4,5.611,9.421,10.93,9.458a11.29,11.29,0,0,0,11.085-9.34,22.6,22.6,0,0,0-.153-6.7c-1.974-13.411-9.4-23.423-20.74-30.109C-355.826,712.514-363.964,709.85-372.5,706.117Z" transform="translate(642.69 -526.5)" fill="#fff"/>
    </g>
    <g transform="matrix(1, 0, 0, 1, 303.31, 1218.5)" filter="url(#Path_57)">
      <path id="Path_57-2" data-name="Path 57" d="M-395.209,772.593c-7.522-1.921-14.125-5.129-18.852-11.361-4.762-6.277-4.6-13.481.329-19.635,4.717-5.888,11.118-8.971,18.523-10.938Z" transform="translate(642.69 -526.5)" fill="#fff"/>
    </g>
    <g transform="matrix(1, 0, 0, 1, 303.31, 1218.5)" filter="url(#Path_58)">
      <path id="Path_58-2" data-name="Path 58" d="M-372.265,798.192c6.481,1.645,12.04,4.258,16.588,8.764,7.575,7.505,7.571,16.9-.042,24.413-4.551,4.495-10.118,7.11-16.546,8.706Z" transform="translate(642.69 -526.5)" fill="#fff"/>
    </g>
  </g>
</svg>
