<?xml version="1.0" encoding="utf-8"?>
<!-- Generator: Adobe Illustrator 23.0.3, SVG Export Plug-In . SVG Version: 6.00 Build 0)  -->
<svg version="1.1" id="Layer_1" xmlns="http://www.w3.org/2000/svg" xmlns:xlink="http://www.w3.org/1999/xlink" x="0px" y="0px"
	 viewBox="0 0 57.6 57.6" style="enable-background:new 0 0 57.6 57.6;" xml:space="preserve">
<style type="text/css">
	.st0{fill:#00FFFF;}
</style>
<path class="st0" d="M9.3,57.4c-0.5-0.2-1-0.4-1.4-0.7c-1.1-0.7-1.5-1.8-1.5-3.1c0-4.2,0-8.5,0-12.7c0-7.6,0-15.2,0-22.7
	c0-0.2,0-0.4,0-0.7c1.3,0,2.5,0,3.8,0c0,0.2,0,0.4,0,0.7c0,2.1-0.1,4.2,0.1,6.3c0.3,3.2,3.3,5.8,6.6,5.9c3.4,0.1,6.4-2.3,7-5.6
	c0.1-0.6,0.1-1.3,0.1-1.9c0-1.8,0-3.6,0-5.4c5.1,0,10.1,0,15.2,0c0,0.3,0,0.5,0,0.8c0,11.6,0,23.2,0,34.7c0,2.6-0.6,3.5-2.9,4.4
	C27.2,57.4,18.3,57.4,9.3,57.4z"/>
<path class="st0" d="M20.6,14.1c0,0.3,0,0.5,0,0.7c0,2.9,0,5.9,0,8.8c0,1.7-1.2,3.1-2.9,3.4c-1.6,0.3-3.4-0.6-3.9-2.2
	c-0.2-0.5-0.3-1-0.3-1.6c0-2.8,0-5.6,0-8.5c0-0.2,0-0.4,0-0.7c-0.3,0-0.5,0-0.7,0c-2,0-4,0-6.1,0c-0.4,0-0.7-0.1-0.9-0.4
	C3.7,11.4,3.6,8,5.4,5.4c1.9-2.5,5.3-3.3,8.1-1.9c1.6,0.8,2.3,0.7,3.6-0.6c3-3.3,8.3-3.2,11.3,0c1.1,1.2,1.9,1.4,3.5,0.6
	c2.8-1.4,6.2-0.6,8.1,1.9c1.9,2.5,1.7,6-0.3,8.2c-0.3,0.3-0.5,0.4-1,0.4c-5.8,0-11.6,0-17.4,0C21.1,14.1,20.8,14.1,20.6,14.1z"/>
<path class="st0" d="M42.4,28.3c0-2.4,0-4.7,0-7c5.5-0.7,9.8,2.5,10.9,7.1c0.2,0.8,0.3,1.6,0.3,2.5c0,3.3,0,6.7,0,10
	c0,4.8-3.2,8.6-7.9,9.4c-1.1,0.2-2.2,0.2-3.3,0.2c0-2.4,0-4.8,0-7.1c0.3,0,0.6,0,0.9-0.1c1.8-0.2,3.2-1.7,3.2-3.6c0-2.6,0-5.2,0-7.8
	c0-2.1-1.5-3.6-3.6-3.6C42.8,28.3,42.7,28.3,42.4,28.3z"/>
</svg>
