<svg xmlns="http://www.w3.org/2000/svg" width="57.591" height="57.57" viewBox="0 0 57.591 57.57">
  <g id="Group_73" data-name="Group 73" transform="translate(236.816 -1090.071)">
    <path id="Path_76" data-name="Path 76" d="M-103.612,1109.517c-.164.9-.263,1.813-.5,2.69-1.794,6.568-6.022,10.7-12.573,12.487-2.381.65-4.769,1.283-7.135,1.984a20.086,20.086,0,0,0-8.356,5.1c-.829.81-1.609,1.672-2.384,2.482l-13.3-13.307a2.326,2.326,0,0,0,.56-.325,37.379,37.379,0,0,0,4.711-5.274,24.4,24.4,0,0,0,3.215-7.8,59.189,59.189,0,0,1,1.885-6.692c2.545-6.391,7.395-9.94,14.193-10.69a18.007,18.007,0,0,1,19.444,14.991c.088.512.163,1.026.244,1.539Z" transform="translate(-75.614 0)" fill="#f90"/>
    <path id="Path_77" data-name="Path 77" d="M-226.685,1360.476c-.192-.062-.382-.13-.576-.184a4.5,4.5,0,0,1-3.208-2.889,5.2,5.2,0,0,0-3.241-3.258,4.97,4.97,0,0,1-2.315-7.354,5.5,5.5,0,0,1,7.857-1.936c.344.253.64.571,1.022.917l2.66-2.68,2.619-2.641,5.087,5.111-5.342,5.3a4.886,4.886,0,0,1,1.737,2.7,5.775,5.775,0,0,1-4.412,6.794c-.144.031-.284.08-.426.121Z" transform="translate(0 -212.835)" fill="#f90"/>
  </g>
</svg>
