<svg xmlns="http://www.w3.org/2000/svg" width="59.591" height="59.57" viewBox="0 0 59.591 59.57">
  <g id="Group_74" data-name="Group 74" transform="translate(236.816 -1090.071)">
    <path id="Path_76" data-name="Path 76" d="M-102.075,1110.192c-.17.929-.272,1.876-.52,2.783-1.856,6.8-6.232,11.07-13.01,12.921-2.464.673-4.934,1.328-7.383,2.053a20.784,20.784,0,0,0-8.646,5.276c-.858.838-1.664,1.73-2.467,2.569l-13.763-13.77a2.4,2.4,0,0,0,.58-.336,38.672,38.672,0,0,0,4.875-5.457,25.247,25.247,0,0,0,3.326-8.066,61.248,61.248,0,0,1,1.951-6.925c2.634-6.613,7.652-10.286,14.686-11.062a18.633,18.633,0,0,1,20.12,15.512c.091.53.169,1.062.252,1.593Z" transform="translate(-75.151 0)" fill="#dadada"/>
    <path id="Path_77" data-name="Path 77" d="M-226.333,1361.171c-.2-.064-.4-.134-.6-.19a4.657,4.657,0,0,1-3.32-2.99,5.376,5.376,0,0,0-3.354-3.371,5.143,5.143,0,0,1-2.4-7.61,5.7,5.7,0,0,1,8.13-2c.356.262.662.591,1.058.949l2.752-2.774,2.71-2.733,5.263,5.288-5.528,5.482a5.056,5.056,0,0,1,1.8,2.8,5.975,5.975,0,0,1-4.565,7.03c-.149.032-.294.083-.441.125Z" transform="translate(0 -211.53)" fill="#dadada"/>
  </g>
</svg>
