<svg xmlns="http://www.w3.org/2000/svg" width="17.022" height="17.024" viewBox="0 0 17.022 17.024">
  <g id="Paid_yes" transform="translate(0)">
    <g id="Group_96" data-name="Group 96" transform="translate(0 0)">
      <path id="Path_55-2" d="M-291.548-1214.6h1.064a1.034,1.034,0,0,0,.143.03,7.6,7.6,0,0,1,2.629.651,8.458,8.458,0,0,1,5.078,6.4c.057.3.087.6.127.9v1.064c-.037.273-.063.547-.11.821a8.313,8.313,0,0,1-2.916,5.128,8.226,8.226,0,0,1-7.089,1.868,8.215,8.215,0,0,1-4.874-2.859,8.287,8.287,0,0,1-1.992-6.332,8.133,8.133,0,0,1,1.621-4.19,8.427,8.427,0,0,1,5.395-3.35C-292.162-1214.527-291.855-1214.557-291.548-1214.6Zm.53,14.993a6.492,6.492,0,0,0,6.482-6.479,6.5,6.5,0,0,0-6.472-6.489,6.494,6.494,0,0,0-6.492,6.485A6.5,6.5,0,0,0-291.017-1199.607Z" transform="translate(299.529 1214.6)" fill="#f1f1f1"/>
    </g>
    <g id="Group_97" data-name="Group 97" transform="translate(0 0)">
      <path id="Path_52-2" d="M-291.548-1214.6h1.064a1.034,1.034,0,0,0,.143.03,7.6,7.6,0,0,1,2.629.651,8.458,8.458,0,0,1,5.078,6.4c.057.3.087.6.127.9v1.064c-.037.273-.063.547-.11.821a8.313,8.313,0,0,1-2.916,5.128,8.226,8.226,0,0,1-7.089,1.868,8.215,8.215,0,0,1-4.874-2.859,8.287,8.287,0,0,1-1.992-6.332,8.133,8.133,0,0,1,1.621-4.19,8.427,8.427,0,0,1,5.395-3.35C-292.162-1214.527-291.855-1214.557-291.548-1214.6Zm.53,14.993a6.492,6.492,0,0,0,6.482-6.479,6.5,6.5,0,0,0-6.472-6.489,6.494,6.494,0,0,0-6.492,6.485A6.5,6.5,0,0,0-291.017-1199.607Z" transform="translate(299.529 1214.6)" fill="#f1f1f1"/>
    </g>
    <path id="Path_100" data-name="Path 100" d="M99.99,94.6a5.486,5.486,0,1,0,5.478,5.5A5.5,5.5,0,0,0,99.99,94.6Zm1.244,4.29a.418.418,0,0,1,.294.107.326.326,0,0,1,.113.25.35.35,0,0,1-.113.274.416.416,0,0,1-.294.1H98.092a2.99,2.99,0,0,0-.037.46,2.827,2.827,0,0,0,.02.34h2.565a.416.416,0,0,1,.294.1.315.315,0,0,1,.113.247.351.351,0,0,1-.113.28.431.431,0,0,1-.294.1H98.266a2.616,2.616,0,0,0,.5.774,2.465,2.465,0,0,0,.777.557,2.323,2.323,0,0,0,1.765.05,3.159,3.159,0,0,0,.744-.414.444.444,0,0,1,.3-.1.372.372,0,0,1,.25.12.456.456,0,0,1,.07.46.485.485,0,0,1-.1.15,3.507,3.507,0,0,1-.981.554,3.289,3.289,0,0,1-1.1.187,3.213,3.213,0,0,1-2.335-.984,3.38,3.38,0,0,1-.7-1.084c-.037-.09-.067-.18-.1-.274h-.677a.416.416,0,0,1-.294-.1.351.351,0,0,1-.113-.28.314.314,0,0,1,.113-.247.431.431,0,0,1,.294-.1h.534c-.01-.11-.013-.224-.013-.34a4.168,4.168,0,0,1,.027-.46h-.547a.416.416,0,0,1-.294-.1.346.346,0,0,1-.113-.274.326.326,0,0,1,.113-.25.418.418,0,0,1,.294-.107H97.4c.017-.047.033-.093.053-.14a3.4,3.4,0,0,1,.7-1.081,3.255,3.255,0,0,1,1.041-.727,3.141,3.141,0,0,1,1.294-.264,3.342,3.342,0,0,1,1.128.17,3.255,3.255,0,0,1,.947.56.462.462,0,0,1,.107.107.27.27,0,0,1,.05.11.514.514,0,0,1,.013.133.346.346,0,0,1-.113.267.466.466,0,0,1-.277.12.434.434,0,0,1-.314-.107,2.583,2.583,0,0,0-.651-.417,2.273,2.273,0,0,0-.887-.143,2.214,2.214,0,0,0-.944.2,2.529,2.529,0,0,0-.777.56,2.562,2.562,0,0,0-.444.647Z" transform="translate(-91.473 -91.574)" fill="#f1f1f1"/>
  </g>
</svg>
