<svg xmlns="http://www.w3.org/2000/svg" xmlns:xlink="http://www.w3.org/1999/xlink" width="56.011" height="65.413" viewBox="0 0 56.011 65.413">
  <defs>
    <filter id="Path_65" x="2" y="38.108" width="54.011" height="27.305" filterUnits="userSpaceOnUse">
      <feOffset dx="1" dy="1" input="SourceAlpha"/>
      <feGaussianBlur stdDeviation="2.5" result="blur"/>
      <feFlood flood-opacity="0.749"/>
      <feComposite operator="in" in2="blur"/>
      <feComposite in="SourceGraphic"/>
    </filter>
    <filter id="Path_66" x="5.017" y="24.745" width="44.386" height="33.412" filterUnits="userSpaceOnUse">
      <feOffset dx="1" dy="1" input="SourceAlpha"/>
      <feGaussianBlur stdDeviation="2.5" result="blur-2"/>
      <feFlood flood-opacity="0.749"/>
      <feComposite operator="in" in2="blur-2"/>
      <feComposite in="SourceGraphic"/>
    </filter>
    <filter id="Path_67" x="15.806" y="2" width="26.511" height="26.517" filterUnits="userSpaceOnUse">
      <feOffset dx="1" dy="1" input="SourceAlpha"/>
      <feGaussianBlur stdDeviation="2.5" result="blur-3"/>
      <feFlood flood-opacity="0.749"/>
      <feComposite operator="in" in2="blur-3"/>
      <feComposite in="SourceGraphic"/>
    </filter>
    <filter id="Path_68" x="12.048" y="16.06" width="31.738" height="25.408" filterUnits="userSpaceOnUse">
      <feOffset dx="1" dy="1" input="SourceAlpha"/>
      <feGaussianBlur stdDeviation="2.5" result="blur-4"/>
      <feFlood flood-opacity="0.749"/>
      <feComposite operator="in" in2="blur-4"/>
      <feComposite in="SourceGraphic"/>
    </filter>
    <filter id="Path_69" x="0" y="36.108" width="54.011" height="27.305" filterUnits="userSpaceOnUse">
      <feOffset dx="-1" dy="-1" input="SourceAlpha"/>
      <feGaussianBlur stdDeviation="2.5" result="blur-5"/>
      <feFlood flood-color="#ffed00" flood-opacity="0.361"/>
      <feComposite operator="in" in2="blur-5"/>
      <feComposite in="SourceGraphic"/>
    </filter>
    <filter id="Path_70" x="3.017" y="22.745" width="44.386" height="33.412" filterUnits="userSpaceOnUse">
      <feOffset dx="-1" dy="-1" input="SourceAlpha"/>
      <feGaussianBlur stdDeviation="2.5" result="blur-6"/>
      <feFlood flood-color="#ffed00" flood-opacity="0.361"/>
      <feComposite operator="in" in2="blur-6"/>
      <feComposite in="SourceGraphic"/>
    </filter>
    <filter id="Path_71" x="13.806" y="0" width="26.511" height="26.517" filterUnits="userSpaceOnUse">
      <feOffset dx="-1" dy="-1" input="SourceAlpha"/>
      <feGaussianBlur stdDeviation="2.5" result="blur-7"/>
      <feFlood flood-color="#ffed00" flood-opacity="0.361"/>
      <feComposite operator="in" in2="blur-7"/>
      <feComposite in="SourceGraphic"/>
    </filter>
    <filter id="Path_72" x="10.048" y="14.06" width="31.738" height="25.408" filterUnits="userSpaceOnUse">
      <feOffset dx="-1" dy="-1" input="SourceAlpha"/>
      <feGaussianBlur stdDeviation="2.5" result="blur-8"/>
      <feFlood flood-color="#ffed00" flood-opacity="0.361"/>
      <feComposite operator="in" in2="blur-8"/>
      <feComposite in="SourceGraphic"/>
    </filter>
  </defs>
  <g id="Group_72" data-name="Group 72" transform="translate(-777.595 -353.199)">
    <g transform="matrix(1, 0, 0, 1, 777.59, 353.2)" filter="url(#Path_65)">
      <path id="Path_65-2" data-name="Path 65" d="M138.189,831.453H100.418a.62.62,0,0,1-.573-.855c.179-.434.357-.855.561-1.264a1.013,1.013,0,0,1,.591-.354q7.26-2.209,14.527-4.4,8.923-2.7,17.845-5.4l0,0a.612.612,0,0,1,.737.352l4.65,11.068A.62.62,0,0,1,138.189,831.453Z" transform="translate(-91.3 -774.54)" fill="#dadada"/>
    </g>
    <g transform="matrix(1, 0, 0, 1, 777.59, 353.2)" filter="url(#Path_66)">
      <path id="Path_66-2" data-name="Path 66" d="M145.315,731.527,149,740.291a.541.541,0,0,1-.341.727l-28.3,8.568a.54.54,0,0,1-.655-.725l.719-1.715c1.218-2.9,2.43-5.8,3.668-8.7a1.068,1.068,0,0,1,.569-.535q9.994-3.363,20-6.69l0,0A.533.533,0,0,1,145.315,731.527Z" transform="translate(-108.14 -699.95)" fill="#dadada"/>
    </g>
    <g transform="matrix(1, 0, 0, 1, 777.59, 353.2)" filter="url(#Path_67)">
      <path id="Path_67-2" data-name="Path 67" d="M190.658,587.3a5.756,5.756,0,1,1,5.776,5.727A5.749,5.749,0,0,1,190.658,587.3Z" transform="translate(-168.35 -573.01)" fill="#dadada"/>
    </g>
    <g transform="matrix(1, 0, 0, 1, 777.59, 353.2)" filter="url(#Path_68)">
      <path id="Path_68-2" data-name="Path 68" d="M170.665,674.109a9.617,9.617,0,0,0,9.469.042.577.577,0,0,1,.8.285l1.685,4.006a.578.578,0,0,1-.349.771l-15.582,5.2a.577.577,0,0,1-.715-.77l3.886-9.255A.578.578,0,0,1,170.665,674.109Z" transform="translate(-147.38 -651.48)" fill="#dadada"/>
    </g>
    <g id="Group_70" data-name="Group 70" transform="translate(786.094 361.699)">
      <g transform="matrix(1, 0, 0, 1, -8.5, -8.5)" filter="url(#Path_69)">
        <path id="Path_69-2" data-name="Path 69" d="M138.189,831.453H100.418a.62.62,0,0,1-.573-.855c.179-.434.357-.855.561-1.264a1.013,1.013,0,0,1,.591-.354q7.26-2.209,14.527-4.4,8.923-2.7,17.845-5.4l0,0a.612.612,0,0,1,.737.352l4.65,11.068A.62.62,0,0,1,138.189,831.453Z" transform="translate(-91.3 -774.54)" fill="#dadada"/>
      </g>
      <g transform="matrix(1, 0, 0, 1, -8.5, -8.5)" filter="url(#Path_70)">
        <path id="Path_70-2" data-name="Path 70" d="M145.315,731.527,149,740.291a.541.541,0,0,1-.341.727l-28.3,8.568a.54.54,0,0,1-.655-.725l.719-1.715c1.218-2.9,2.43-5.8,3.668-8.7a1.068,1.068,0,0,1,.569-.535q9.994-3.363,20-6.69l0,0A.533.533,0,0,1,145.315,731.527Z" transform="translate(-108.14 -699.95)" fill="#dadada"/>
      </g>
      <g transform="matrix(1, 0, 0, 1, -8.5, -8.5)" filter="url(#Path_71)">
        <path id="Path_71-2" data-name="Path 71" d="M190.658,587.3a5.756,5.756,0,1,1,5.776,5.727A5.749,5.749,0,0,1,190.658,587.3Z" transform="translate(-168.35 -573.01)" fill="#dadada"/>
      </g>
      <g transform="matrix(1, 0, 0, 1, -8.5, -8.5)" filter="url(#Path_72)">
        <path id="Path_72-2" data-name="Path 72" d="M170.665,674.109a9.617,9.617,0,0,0,9.469.042.577.577,0,0,1,.8.285l1.685,4.006a.578.578,0,0,1-.349.771l-15.582,5.2a.577.577,0,0,1-.715-.77l3.886-9.255A.578.578,0,0,1,170.665,674.109Z" transform="translate(-147.38 -651.48)" fill="#dadada"/>
      </g>
    </g>
  </g>
</svg>
