<svg xmlns="http://www.w3.org/2000/svg" xmlns:xlink="http://www.w3.org/1999/xlink" viewBox="0 0 312.29 486.56"><defs><style>.cls-1{fill:url(#linear-gradient);}</style><linearGradient id="linear-gradient" x1="159.47" y1="-127.34" x2="152.44" y2="655.88" gradientUnits="userSpaceOnUse"><stop offset="0" stop-color="aqua"/><stop offset="1" stop-color="#d300ff"/></linearGradient></defs><title>zoisovidneviAsset 3</title><g id="Layer_2" data-name="Layer 2"><g id="Layer_1-2" data-name="Layer 1"><path class="cls-1" d="M73.44,476a129.62,129.62,0,0,0,44,10.38,118.83,118.83,0,0,0,44.92-6.27,102.13,102.13,0,0,0,39.74-25.06L309.88,347.3l-88.79-88.79,59.83-59.83A102.53,102.53,0,0,0,306,159.3a112,112,0,0,0,6.09-44,122.93,122.93,0,0,0-10.92-43.13,124.94,124.94,0,0,0-25.59-37.06,115.86,115.86,0,0,0-36.7-24.53,129.24,129.24,0,0,0-44-10.37,118.7,118.7,0,0,0-44.93,6.26A102.16,102.16,0,0,0,110.16,31.5L2.41,139.25l88.79,88.8L31.37,287.88a102.41,102.41,0,0,0-25,39.38,111.83,111.83,0,0,0-6.09,44,123.23,123.23,0,0,0,10.91,43.14,125.37,125.37,0,0,0,25.6,37.05A115.92,115.92,0,0,0,73.44,476Zm92.2-408a42.5,42.5,0,0,1,19-2.86A59.74,59.74,0,0,1,205.2,70.7a70.37,70.37,0,0,1,20.23,14.5q19,19,20.93,39.19t-11.62,33.83L177.46,215.5,95.12,133.16,150.25,78A45.51,45.51,0,0,1,165.64,68ZM65.91,362.16q-2-20.24,11.64-33.83l57.28-57.27,82.34,82.34L162,408.53a45.51,45.51,0,0,1-15.39,10,42.5,42.5,0,0,1-19,2.86,60,60,0,0,1-20.59-5.55,69.85,69.85,0,0,1-20.23-14.5Q67.88,382.39,65.91,362.16Z"/></g></g></svg>