<svg xmlns="http://www.w3.org/2000/svg" xmlns:xlink="http://www.w3.org/1999/xlink" viewBox="0 0 874 344.37"><defs><style>.cls-1{fill:url(#linear-gradient);}.cls-2{fill:url(#linear-gradient-2);}.cls-3{fill:url(#linear-gradient-3);}.cls-4{fill:url(#linear-gradient-4);}.cls-5{fill:url(#linear-gradient-5);}.cls-6{fill:url(#linear-gradient-7);}.cls-7{fill:url(#linear-gradient-8);}.cls-8{fill:url(#linear-gradient-9);}.cls-9{fill:url(#linear-gradient-10);}.cls-10{fill:url(#linear-gradient-11);}.cls-11{fill:url(#linear-gradient-12);}.cls-12{fill:url(#linear-gradient-13);}</style><linearGradient id="linear-gradient" x1="329" y1="-186.24" x2="329" y2="442.06" gradientUnits="userSpaceOnUse"><stop offset="0" stop-color="aqua"/><stop offset="1" stop-color="#d300ff"/></linearGradient><linearGradient id="linear-gradient-2" x1="421.54" y1="-186.24" x2="421.54" y2="442.06" xlink:href="#linear-gradient"/><linearGradient id="linear-gradient-3" x1="504.8" y1="-186.24" x2="504.8" y2="442.06" xlink:href="#linear-gradient"/><linearGradient id="linear-gradient-4" x1="565.26" y1="-186.24" x2="565.26" y2="442.06" xlink:href="#linear-gradient"/><linearGradient id="linear-gradient-5" x1="640.32" y1="-186.24" x2="640.32" y2="442.06" xlink:href="#linear-gradient"/><linearGradient id="linear-gradient-7" x1="407.01" y1="-186.24" x2="407.01" y2="442.06" xlink:href="#linear-gradient"/><linearGradient id="linear-gradient-8" x1="474.36" y1="-186.24" x2="474.36" y2="442.06" xlink:href="#linear-gradient"/><linearGradient id="linear-gradient-9" x1="571.98" y1="-186.24" x2="571.98" y2="442.06" xlink:href="#linear-gradient"/><linearGradient id="linear-gradient-10" x1="665.39" y1="-186.24" x2="665.39" y2="442.06" xlink:href="#linear-gradient"/><linearGradient id="linear-gradient-11" x1="764.24" y1="-186.24" x2="764.24" y2="442.06" xlink:href="#linear-gradient"/><linearGradient id="linear-gradient-12" x1="848.41" y1="-186.24" x2="848.41" y2="442.06" xlink:href="#linear-gradient"/><linearGradient id="linear-gradient-13" x1="110.51" y1="-186.24" x2="110.51" y2="442.06" xlink:href="#linear-gradient"/></defs><title>zoisovidneviAsset 1</title><g id="Layer_2" data-name="Layer 2"><g id="Layer_1-2" data-name="Layer 1"><path class="cls-1" d="M361.73,41.19A38.57,38.57,0,0,0,350,32.33,33.1,33.1,0,0,0,335.15,29H285.77V145.46h22.64V106.41H336a33.22,33.22,0,0,0,14.77-3.28,36.48,36.48,0,0,0,11.49-8.7,39.84,39.84,0,0,0,7.38-12.38,40.46,40.46,0,0,0,2.62-14.36,37.52,37.52,0,0,0-2.79-14A42,42,0,0,0,361.73,41.19ZM345.08,81.47a13,13,0,0,1-10.42,5.09H308.41V48.82h25.27a14.63,14.63,0,0,1,5.82,1.23,13.66,13.66,0,0,1,5,3.7,19.42,19.42,0,0,1,3.44,6,22.64,22.64,0,0,1,1.31,8Q349.26,76.39,345.08,81.47Z"/><path class="cls-2" d="M387.49,139.31a28.09,28.09,0,0,0,9.35,5.74,32.55,32.55,0,0,0,11.65,2,40,40,0,0,0,17.56-3.94A38,38,0,0,0,440,131.68l.5,4.76a12,12,0,0,0,4.18,7.38q3.36,2.79,9.6,2.79a49.44,49.44,0,0,0,9.68-1.15v-18.7a5.38,5.38,0,0,1-4-1.65q-1.23-1.47-1.23-4.92V93.45q0-17.24-10.26-26.33T419.65,58a63.54,63.54,0,0,0-35.77,11l6.73,14a62.55,62.55,0,0,1,13.45-7.22,38.07,38.07,0,0,1,13.46-2.46q9.51,0,14.35,4.59T436.71,91v4.92A46.17,46.17,0,0,0,427,93.12a63.32,63.32,0,0,0-11.24-1,50.42,50.42,0,0,0-14.77,2,37.33,37.33,0,0,0-11.56,5.66,25.8,25.8,0,0,0-7.55,8.78,23.88,23.88,0,0,0-2.71,11.23,26,26,0,0,0,2.22,10.83A26.88,26.88,0,0,0,387.49,139.31Zm17.89-31q5.4-3.85,13.94-3.86a46.08,46.08,0,0,1,8.86.9,55.12,55.12,0,0,1,8.53,2.38v9.85q0,3.44-3.61,6.23a19.19,19.19,0,0,1-7.79,5.25,28.73,28.73,0,0,1-10.58,2,15.47,15.47,0,0,1-10.5-3.69,11.73,11.73,0,0,1-4.27-9.27Q400,112.15,405.38,108.3Z"/><path class="cls-3" d="M526,58.34a20.35,20.35,0,0,0-7.13,1.39,31.09,31.09,0,0,0-7.3,4,41,41,0,0,0-6.73,6.16,39.08,39.08,0,0,0-5.42,8V59.49H479.2v86h22v-52a22.58,22.58,0,0,1,11.32-11.07,43.22,43.22,0,0,1,17.88-3.86v-20a9.56,9.56,0,0,0-1.72-.16Z"/><path class="cls-4" d="M547.62,125.77a23.79,23.79,0,0,0,1.8,9.76,18.21,18.21,0,0,0,4.84,6.57,19.15,19.15,0,0,0,7.06,3.69,31.43,31.43,0,0,0,8.61,1.15,45.65,45.65,0,0,0,13.46-2A100.15,100.15,0,0,0,594.21,141l-4.42-17.39c-1.32.55-3.07,1.2-5.26,2a20.28,20.28,0,0,1-6.72,1.15,9.09,9.09,0,0,1-5.83-1.89c-1.58-1.26-2.38-3.42-2.38-6.48v-42h18V59.49h-18V31.6h-22V59.49H536.3v16.9h11.32Z"/><path class="cls-5" d="M647.86,162.52l36.1-103H663.28l-20.67,66.94-23.3-66.94H596.67l34,86q-1.65,5.41-3.12,9a28,28,0,0,1-3,5.66,8.34,8.34,0,0,1-3.28,2.87,9.32,9.32,0,0,1-3.93.82,28.48,28.48,0,0,1-4.43-.41,41.06,41.06,0,0,1-5.42-1.23v19a34.49,34.49,0,0,0,5.66,1.39,36,36,0,0,0,5.33.41q11.16,0,18.71-5.74A30.79,30.79,0,0,0,647.86,162.52Z"/><path class="cls-1" d="M361.73,197.35A38.41,38.41,0,0,0,350,188.49a33.1,33.1,0,0,0-14.85-3.36H285.77V301.62h22.64V262.57H336a33.22,33.22,0,0,0,14.77-3.28,36.48,36.48,0,0,0,11.49-8.7,39.89,39.89,0,0,0,7.38-12.39,40.36,40.36,0,0,0,2.62-14.35,37.52,37.52,0,0,0-2.79-14A41.9,41.9,0,0,0,361.73,197.35Zm-16.65,40.28a13,13,0,0,1-10.42,5.09H308.41V205h25.27a14.63,14.63,0,0,1,5.82,1.23,13.75,13.75,0,0,1,5,3.69,19.48,19.48,0,0,1,3.44,6,22.57,22.57,0,0,1,1.31,8Q349.26,232.55,345.08,237.63Z"/><path class="cls-6" d="M420.88,283.4a16.44,16.44,0,0,1-4.35.66,8.23,8.23,0,0,1-6.56-2.62c-1.54-1.75-2.3-4.21-2.3-7.39v-92.2h-22v99.91q0,10.19,5.66,15.67t16,5.5A57,57,0,0,0,418,301.78a42.37,42.37,0,0,0,10.33-3.28l-2.95-16.74A28.39,28.39,0,0,1,420.88,283.4Z"/><path class="cls-7" d="M511.52,276.35V249.61q0-17.24-10.25-26.34t-28.8-9.1a63.44,63.44,0,0,0-35.76,11l6.73,14a62.32,62.32,0,0,1,13.45-7.22,38,38,0,0,1,13.45-2.46q9.51,0,14.36,4.59t4.84,13.13v4.92a45.75,45.75,0,0,0-9.76-2.79,63.41,63.41,0,0,0-11.24-1,50.36,50.36,0,0,0-14.77,2.06A37.17,37.17,0,0,0,442.2,256a25.74,25.74,0,0,0-7.54,8.77A23.83,23.83,0,0,0,432,276a26.18,26.18,0,0,0,2.21,10.83,26.72,26.72,0,0,0,6.16,8.61,27.86,27.86,0,0,0,9.35,5.75,32.77,32.77,0,0,0,11.65,2.05,40.11,40.11,0,0,0,17.55-3.94,38,38,0,0,0,13.95-11.49l.49,4.76a12,12,0,0,0,4.18,7.39c2.25,1.85,5.44,2.79,9.6,2.79a49.35,49.35,0,0,0,9.68-1.15V282.91a5.37,5.37,0,0,1-4-1.64Q511.52,279.8,511.52,276.35Zm-22-2.63c0,2.3-1.21,4.38-3.61,6.24a19.16,19.16,0,0,1-7.8,5.25,28.65,28.65,0,0,1-10.58,2,15.49,15.49,0,0,1-10.5-3.69,11.75,11.75,0,0,1-4.26-9.27q0-5.91,5.41-9.77t13.95-3.85a46.16,46.16,0,0,1,8.86.9,54.34,54.34,0,0,1,8.53,2.38Z"/><path class="cls-8" d="M607,224.83a21.37,21.37,0,0,0-7.88-7.71q-5.08-3-13.12-3a44.26,44.26,0,0,0-20.35,4.59,32.63,32.63,0,0,0-13.78,12.8V215.64H532v86h22V251.41a22.34,22.34,0,0,1,3.6-7.22,30.81,30.81,0,0,1,5.5-5.66,25,25,0,0,1,6.48-3.69,19,19,0,0,1,6.73-1.31,11.88,11.88,0,0,1,10,4.76q3.6,4.76,3.61,15.09v48.24h22V248a71.13,71.13,0,0,0-1.07-12.31A32.34,32.34,0,0,0,607,224.83Z"/><path class="cls-9" d="M700.42,224.83a21.37,21.37,0,0,0-7.88-7.71q-5.09-3-13.12-3a44.26,44.26,0,0,0-20.35,4.59,32.63,32.63,0,0,0-13.78,12.8V215.64H625.44v86h22V251.41a22.34,22.34,0,0,1,3.6-7.22,30.81,30.81,0,0,1,5.5-5.66,25,25,0,0,1,6.48-3.69,19,19,0,0,1,6.73-1.31,11.88,11.88,0,0,1,10,4.76q3.6,4.76,3.61,15.09v48.24h22V248a71.12,71.12,0,0,0-1.06-12.31A32.57,32.57,0,0,0,700.42,224.83Z"/><path class="cls-10" d="M797.46,227.46a43.22,43.22,0,0,0-14.11-9.68,46.5,46.5,0,0,0-18.78-3.61,47.71,47.71,0,0,0-19,3.61,43.13,43.13,0,0,0-14.36,9.76,42.08,42.08,0,0,0-9,14.27,47.89,47.89,0,0,0-3.12,17.31,45.33,45.33,0,0,0,3.2,16.9,42.23,42.23,0,0,0,23.38,23.71,47.73,47.73,0,0,0,18.7,3.53q14.45,0,24.86-6.32a38.46,38.46,0,0,0,15.18-16.16l-18.87-5.25a16.94,16.94,0,0,1-8,8.45,25.36,25.36,0,0,1-12.39,3.2,23.07,23.07,0,0,1-8.2-1.48,22,22,0,0,1-7-4.26,22.33,22.33,0,0,1-5.09-6.73,25.62,25.62,0,0,1-2.46-9h66.45a17.9,17.9,0,0,0,.41-3.29c.05-1.31.08-2.67.08-4.1a46.85,46.85,0,0,0-3-16.73A41.15,41.15,0,0,0,797.46,227.46Zm-55.37,23.95a23.65,23.65,0,0,1,2.22-8.69,22.34,22.34,0,0,1,4.84-6.73,21.5,21.5,0,0,1,6.8-4.35,23,23,0,0,1,23.63,4.27q6.31,5.82,7.14,15.5Z"/><path class="cls-11" d="M872.28,214.5h-2.71a20.13,20.13,0,0,0-7.14,1.39,31.29,31.29,0,0,0-7.3,4,41.27,41.27,0,0,0-6.72,6.15,39.43,39.43,0,0,0-5.42,8V215.64H822.81v86h22v-52a22.52,22.52,0,0,1,11.32-11.08A43.38,43.38,0,0,1,874,234.68v-20A8.73,8.73,0,0,0,872.28,214.5Z"/><path class="cls-12" d="M216.56,112.74a79.41,79.41,0,0,0,4.31-31.16,87.34,87.34,0,0,0-7.73-30.53A88.38,88.38,0,0,0,195,24.83a82,82,0,0,0-26-17.36A91.5,91.5,0,0,0,137.88.13a84,84,0,0,0-31.79,4.43A72.17,72.17,0,0,0,78,22.3L1.71,98.56,64.55,161.4,22.2,203.75A72.63,72.63,0,0,0,4.47,231.62,79.27,79.27,0,0,0,.16,262.79a87.12,87.12,0,0,0,7.73,30.53A88.66,88.66,0,0,0,26,319.54,82.2,82.2,0,0,0,52,336.9a91.58,91.58,0,0,0,31.16,7.35,84.23,84.23,0,0,0,31.79-4.44,72.13,72.13,0,0,0,28.13-17.74l76.26-76.26L156.48,183l42.34-42.34A72.55,72.55,0,0,0,216.56,112.74ZM114.68,289.14a31.94,31.94,0,0,1-10.89,7.09,29.9,29.9,0,0,1-13.43,2,42.3,42.3,0,0,1-14.57-3.92,49.61,49.61,0,0,1-14.32-10.26Q48,270.65,46.65,256.33t8.24-23.95l40.54-40.54,58.27,58.28ZM166.14,112,125.6,152.52,67.32,94.25l39-39a32.15,32.15,0,0,1,10.9-7.1,30.13,30.13,0,0,1,13.42-2A42.38,42.38,0,0,1,145.24,50,49.71,49.71,0,0,1,159.55,60.3Q173,73.72,174.37,88T166.14,112Z"/></g></g></svg>