<?xml version="1.0" encoding="utf-8"?>
<!-- Generator: Adobe Illustrator 23.0.3, SVG Export Plug-In . SVG Version: 6.00 Build 0)  -->
<svg version="1.1" id="Layer_1" xmlns="http://www.w3.org/2000/svg" xmlns:xlink="http://www.w3.org/1999/xlink" x="0px" y="0px"
	 viewBox="0 0 57.6 57.6" style="enable-background:new 0 0 57.6 57.6;" xml:space="preserve">
<style type="text/css">
	.st0{fill:#67CE24;}
</style>
<path class="st0" d="M32.8,25.3c-1.9,0.4-3.6,1-5.2,1.9c-4.1,2.2-7.2,5.4-9.6,9.4c-2.6,4.3-4.1,9-5.1,14c-0.2,1.2-0.4,2.3-0.6,3.5
	c-0.1,0-0.1,0-0.2,0.1c-0.8-1.6-1.7-3.3-2.4-4.9c-1-2.2-1.7-4.5-2-6.9C7,37,8.3,32.1,11.9,27.9c2.8-3.3,6.4-5.5,10.4-7
	c3.3-1.3,6.4-2.8,9.3-4.8c2.8-2,5.1-4.3,6.5-7.5c1.1-2.5,1.4-5.1,0.7-7.9c0.2,0.3,0.4,0.4,0.5,0.6c4.4,6.3,7.7,13.1,9.6,20.6
	c0.9,3.7,1.3,7.4,1.1,11.2c-0.2,4.5-1.1,8.8-3.2,12.7c-2.5,4.7-6.5,7.7-11.5,9.4c-4.5,1.5-9.1,1.9-13.8,1.7
	c-1.4-0.1-2.9-0.2-4.3-0.4c-0.3,0-0.5-0.1-0.4-0.5c0.3-2.2,0.4-4.3,0.8-6.5c1-5.8,2.9-11.4,6.3-16.2c2.3-3.3,5.1-6,8.7-7.9
	C32.6,25.4,32.7,25.4,32.8,25.3z"/>
</svg>
